REM DIRINDEX 1\2\3,1\2\4,1\2\5,1\2\6
REM DIRNAME folder01,folder02,folder03,folder04,folder05,folder06
TITLE ""
FILE "193 193.mp3" MP3
  TRACK 01 AUDIO
    TITLE "0:"
    INDEX 01 00:00:00
  TRACK 02 AUDIO
    TITLE "3:cjc157_6954"
    INDEX 01 00:00:11
  TRACK 03 AUDIO
    TITLE "0:"
    INDEX 01 00:01:50
  TRACK 04 AUDIO
    TITLE "4:cjc157_6955"
    INDEX 01 00:02:24
  TRACK 05 AUDIO
    TITLE "0:"
    INDEX 01 00:04:05
  TRACK 06 AUDIO
    TITLE "5:cjc157_6956"
    INDEX 01 00:04:50
  TRACK 07 AUDIO
    TITLE "0:"
    INDEX 01 00:08:09
  TRACK 08 AUDIO
    TITLE "3:cjc157_6957"
    INDEX 01 00:08:60
  TRACK 09 AUDIO
    TITLE "0:"
    INDEX 01 00:09:73
  TRACK 10 AUDIO
    TITLE "4:cjc157_6958"
    INDEX 01 00:10:47
  TRACK 11 AUDIO
    TITLE "0:"
    INDEX 01 00:12:05
  TRACK 12 AUDIO
    TITLE "5:cjc157_6959"
    INDEX 01 00:12:48
  TRACK 13 AUDIO
    TITLE "0:"
    INDEX 01 00:16:51
  TRACK 14 AUDIO
    TITLE "3:cjc157_6960"
    INDEX 01 00:17:23
  TRACK 15 AUDIO
    TITLE "0:"
    INDEX 01 00:18:56
  TRACK 16 AUDIO
    TITLE "4:cjc157_6961"
    INDEX 01 00:19:32
  TRACK 17 AUDIO
    TITLE "0:"
    INDEX 01 00:21:06
  TRACK 18 AUDIO
    TITLE "5:cjc157_6962"
    INDEX 01 00:21:57
  TRACK 19 AUDIO
    TITLE "0:"
    INDEX 01 00:24:14
  TRACK 20 AUDIO
    TITLE "5:cjc157_6963"
    INDEX 01 00:24:61
  TRACK 21 AUDIO
    TITLE "0:"
    INDEX 01 00:28:31
  TRACK 22 AUDIO
    TITLE "5:cjc157_6964"
    INDEX 01 00:29:07
  TRACK 23 AUDIO
    TITLE "0:"
    INDEX 01 00:31:02
  TRACK 24 AUDIO
    TITLE "3:cjc157_6965"
    INDEX 01 00:31:59
  TRACK 25 AUDIO
    TITLE "0:"
    INDEX 01 00:34:30
  TRACK 26 AUDIO
    TITLE "4:cjc157_6966"
    INDEX 01 00:35:04
  TRACK 27 AUDIO
    TITLE "0:"
    INDEX 01 00:37:52
  TRACK 28 AUDIO
    TITLE "5:cjc157_6967"
    INDEX 01 00:38:24
  TRACK 29 AUDIO
    TITLE "0:"
    INDEX 01 00:42:66
  TRACK 30 AUDIO
    TITLE "3:cjc157_6968"
    INDEX 01 00:43:39
  TRACK 31 AUDIO
    TITLE "0:"
    INDEX 01 00:45:08
  TRACK 32 AUDIO
    TITLE "4:cjc157_6969"
    INDEX 01 00:45:57
  TRACK 33 AUDIO
    TITLE "0:"
    INDEX 01 00:52:59
  TRACK 34 AUDIO
    TITLE "5:cjc157_6970"
    INDEX 01 00:53:27
  TRACK 35 AUDIO
    TITLE "0:"
    INDEX 01 00:56:20
  TRACK 36 AUDIO
    TITLE "3:cjc157_6971"
    INDEX 01 00:56:69
  TRACK 37 AUDIO
    TITLE "0:"
    INDEX 01 00:58:36
  TRACK 38 AUDIO
    TITLE "4:cjc157_6972"
    INDEX 01 00:59:10
  TRACK 39 AUDIO
    TITLE "0:"
    INDEX 01 01:01:33
  TRACK 40 AUDIO
    TITLE "5:cjc157_6973"
    INDEX 01 01:02:01
  TRACK 41 AUDIO
    TITLE "0:"
    INDEX 01 01:05:58
  TRACK 42 AUDIO
    TITLE "3:cjc157_6974"
    INDEX 01 01:06:32
  TRACK 43 AUDIO
    TITLE "0:"
    INDEX 01 01:07:57
  TRACK 44 AUDIO
    TITLE "4:cjc157_6975"
    INDEX 01 01:08:31
  TRACK 45 AUDIO
    TITLE "0:"
    INDEX 01 01:10:30
  TRACK 46 AUDIO
    TITLE "5:cjc157_6976"
    INDEX 01 01:11:00
  TRACK 47 AUDIO
    TITLE "0:"
    INDEX 01 01:14:35
  TRACK 48 AUDIO
    TITLE "3:cjc157_6977"
    INDEX 01 01:15:09
  TRACK 49 AUDIO
    TITLE "0:"
    INDEX 01 01:16:60
  TRACK 50 AUDIO
    TITLE "4:cjc157_6978"
    INDEX 01 01:17:32
  TRACK 51 AUDIO
    TITLE "0:"
    INDEX 01 01:19:15
  TRACK 52 AUDIO
    TITLE "5:cjc157_6979"
    INDEX 01 01:19:60
  TRACK 53 AUDIO
    TITLE "0:"
    INDEX 01 01:23:50
  TRACK 54 AUDIO
    TITLE "3:cjc157_6980"
    INDEX 01 01:24:20
  TRACK 55 AUDIO
    TITLE "0:"
    INDEX 01 01:26:03
  TRACK 56 AUDIO
    TITLE "4:cjc157_6981"
    INDEX 01 01:26:44
  TRACK 57 AUDIO
    TITLE "0:"
    INDEX 01 01:27:73
  TRACK 58 AUDIO
    TITLE "5:cjc157_6982"
    INDEX 01 01:28:43
  TRACK 59 AUDIO
    TITLE "0:"
    INDEX 01 01:33:09
  TRACK 60 AUDIO
    TITLE "3:cjc157_6983"
    INDEX 01 01:33:58
  TRACK 61 AUDIO
    TITLE "0:"
    INDEX 01 01:35:35
  TRACK 62 AUDIO
    TITLE "4:cjc157_6984"
    INDEX 01 01:36:05
  TRACK 63 AUDIO
    TITLE "0:"
    INDEX 01 01:37:30
  TRACK 64 AUDIO
    TITLE "5:cjc157_6985"
    INDEX 01 01:37:73
  TRACK 65 AUDIO
    TITLE "0:"
    INDEX 01 01:41:38
  TRACK 66 AUDIO
    TITLE "5:cjc157_6986"
    INDEX 01 01:42:10
  TRACK 67 AUDIO
    TITLE "0:"
    INDEX 01 01:45:73
